<?xml version="1.0" encoding="utf-8"?>
<!-- Generator: Adobe Illustrator 28.3.0, SVG Export Plug-In . SVG Version: 6.00 Build 0)  -->
<svg version="1.0" id="katman_1" xmlns="http://www.w3.org/2000/svg" xmlns:xlink="http://www.w3.org/1999/xlink" x="0px" y="0px"
	 viewBox="0 0 365.8 523.89" style="enable-background:new 0 0 365.8 523.89;" xml:space="preserve">
<style type="text/css">
	.st0{fill:#A21223;}
</style>
<path class="st0" d="M362.11,149.72c-4.97-23.86-14.27-46.04-27.91-66.54c-9.4-13.97-20.55-26.56-33.45-37.79
	c-2.57-2.44-5.31-4.76-8.22-6.97c-12.04-9.14-24.94-16.8-38.7-22.99c-17.27-7.44-34.13-12.2-50.56-14.28
	C192-0.28,179.25-0.38,165,0.86c-4.3,0.33-9.06,1.05-14.28,2.16C122.45,9.04,96.95,20.7,74.23,37.98
	c-17.65,13.41-32.5,29.23-44.56,47.48c-3.38,5.11-6.72,10.9-10.01,17.36c-4.75,9.18-8.32,17.82-10.73,25.93
	c-3.23,10.87-5.21,18.45-5.94,22.74c-3.99,23.52-3.98,47.04,0.04,70.56c0.55,3.24,1.21,6.47,1.96,9.68
	c3.91,17.73,9.56,34.92,16.93,51.55c3.69,8.59,7.64,17.08,11.86,25.45c12.42,24.6,25.89,48.63,40.41,72.09
	c1,1.85,2.06,3.69,3.19,5.5c13.93,22.32,28.69,44.07,44.3,65.26c8.38,11.37,16.84,22.67,25.37,33.88
	c8.89,11.31,18.1,22.34,27.63,33.08c1.41,1.58,3.37,3.36,5.88,5.35c3.36-0.26,6.84-2.47,10.43-6.63
	c14.87-17.24,25.5-30.01,31.91-38.3c29.09-37.63,55.72-76.92,79.91-117.87c10.69-18.09,21.83-38.7,33.42-61.83l1.06-2.44l3.89-8.75
	c0.01-0.03,0.02-0.06,0.02-0.1c0.01-0.15-0.1-0.28-0.25-0.29c-9.78-0.62-19.69-1.37-29.01,0.23c-5.95,1.03-12.44,2.72-19.47,5.09
	c-36.21,12.2-71.86,26.3-107.42,39.38c-1.99,0.74-4.06,1.56-6.2,2.46c-13.03,5.13-27.3,14.45-32.84,27.69
	c-4.55,10.9-3.49,23.32,3.04,33.57c1.85,2.91,3.53,5.17,5.04,6.77c4.35,4.63,13.06,13.23,26.13,25.81l1.02,1.82l-0.41,25.2
	c-1.44-1.33-2.86-2.68-4.26-4.05c-9.77-9.53-20.22-19.8-31.36-30.81c-9.02-8.93-17.74-19.13-20.7-31.82
	c-2.51-10.94-1.76-21.09,2.26-30.44c8.59-19.98,25.46-32.69,45.57-40.62c35.37-13.96,72.73-27.88,112.07-41.76
	c11.8-4.16,22.51-7.44,35.15-7.83c8.39-0.26,17.98-0.13,28.79,0.39c0.75,0.03,1.44-0.43,1.68-1.15l5.24-15.59
	C365.95,218.93,369.03,183.89,362.11,149.72z M237.43,361.42c0.03,0.04,0.05,0.08,0.08,0.11
	C237.48,361.49,237.46,361.46,237.43,361.42z M237.86,361.68c0.04,0.01,0.07,0.01,0.11,0.01c-0.01,0-0.01,0-0.02,0
	C237.91,361.7,237.89,361.68,237.86,361.68z M237.62,361.59c0.03,0.02,0.07,0.04,0.11,0.06
	C237.68,361.64,237.65,361.61,237.62,361.59z M237.37,361.33c-0.04-0.08-0.06-0.17-0.06-0.27
	C237.31,361.15,237.33,361.24,237.37,361.33z M181.38,268.71c0-0.01,0-0.02,0.01-0.04c0-0.01,0.01-0.02,0.01-0.03
	C181.39,268.67,181.39,268.69,181.38,268.71z M181.47,268.5c0.02-0.04,0.04-0.07,0.06-0.11
	C181.51,268.43,181.49,268.46,181.47,268.5z M181.62,268.28c0.03-0.04,0.06-0.07,0.09-0.11
	C181.68,268.2,181.65,268.24,181.62,268.28z M181.81,268.08c0.04-0.03,0.07-0.06,0.11-0.09
	C181.88,268.02,181.85,268.05,181.81,268.08z M182.05,267.92c0.04-0.02,0.08-0.05,0.12-0.06
	C182.12,267.88,182.09,267.9,182.05,267.92z M182.3,267.81c0.05-0.01,0.09-0.03,0.14-0.04C182.39,267.78,182.34,267.8,182.3,267.81z
	 M182.56,267.75c0.05-0.01,0.11-0.01,0.16-0.02C182.67,267.74,182.61,267.75,182.56,267.75z M182.79,267.74
	c0.16,0,0.31,0.03,0.47,0.09C183.11,267.77,182.95,267.75,182.79,267.74z M268.43,195.95c-0.04-0.02-0.07-0.04-0.1-0.06
	C268.37,195.91,268.4,195.93,268.43,195.95z M268.25,195.81c-0.03-0.03-0.05-0.06-0.07-0.1
	C268.2,195.75,268.22,195.78,268.25,195.81z M268.13,195.61c-0.01-0.04-0.03-0.08-0.03-0.12
	C268.11,195.52,268.12,195.57,268.13,195.61z M268.75,196.03c-0.05,0-0.09,0-0.14-0.01c-0.02,0-0.03-0.02-0.05-0.02
	C268.62,196.02,268.68,196.03,268.75,196.03z M332.35,85.44c0,0,0-0.01,0-0.01c0.01,0.01,0.02,0.02,0.03,0.02
	C332.37,85.45,332.36,85.45,332.35,85.44z M252.56,189.48c-11.52,31.39-40.33,52.14-74.48,50.03c-16.08-0.99-30.39-6.55-42.94-16.68
	c-10.01-8.08-17.46-18.34-22.37-30.78c-8.2-24.59-5.52-47.24,8.04-67.97c11.42-17.45,27.88-28.22,49.37-32.31
	c17.15-2.35,33.01-0.22,47.93,8.64c16.85,10,28.3,23.69,34.37,41.06C257.82,156.77,257.85,172.78,252.56,189.48z M118.04,396.45
	c0-0.06-0.01-0.12-0.04-0.17C118.03,396.33,118.04,396.39,118.04,396.45z M92.3,385c-0.04-0.02-0.07-0.03-0.11-0.04
	C92.23,384.97,92.26,384.98,92.3,385z M92.07,384.94c-0.04,0-0.08,0-0.12,0C92,384.94,92.03,384.94,92.07,384.94z M91.85,384.97
	c-0.04,0.01-0.07,0.03-0.11,0.04C91.77,385,91.81,384.98,91.85,384.97z M84.45,333.74c-0.95,0-1.87-0.16-2.72-0.45
	C82.58,333.58,83.49,333.74,84.45,333.74C84.45,333.74,84.45,333.74,84.45,333.74z M34.38,282.14c0-0.01-0.01-0.02-0.02-0.04
	C34.37,282.12,34.37,282.13,34.38,282.14z M44.39,145.38C44.39,145.38,44.39,145.38,44.39,145.38c-0.26,0.58-0.57,1.12-0.93,1.63
	C43.82,146.51,44.13,145.96,44.39,145.38c2.09-4.65,0.21-10.04-4.21-12.02c-0.28-0.12-0.56-0.23-0.84-0.32
	c-2.25-0.74-4.66-0.46-6.71,0.62c-1.23,0.64-2.32,1.58-3.19,2.76c0.87-1.17,1.96-2.11,3.19-2.76c2.05-1.08,4.46-1.35,6.71-0.62
	c0.28,0.09,0.56,0.2,0.84,0.32C44.6,135.35,46.49,140.73,44.39,145.38z M41.62,148.97c-1.38,1.1-3.04,1.78-4.75,1.95
	c-0.28,0.03-0.57,0.04-0.86,0.04c0.29,0,0.57-0.01,0.86-0.04C38.59,150.74,40.24,150.07,41.62,148.97c0.46-0.37,0.89-0.78,1.28-1.24
	C42.52,148.19,42.08,148.6,41.62,148.97z M30.76,183.36c-0.13,0.2-0.25,0.4-0.36,0.61C30.52,183.76,30.64,183.56,30.76,183.36z
	 M32.26,181.56c-0.25,0.24-0.49,0.49-0.72,0.75C31.77,182.05,32,181.8,32.26,181.56z M27.68,143.69c-0.06-0.34-0.1-0.69-0.12-1.04
	C27.57,143,27.62,143.34,27.68,143.69z M28.4,138.19C28.4,138.19,28.4,138.19,28.4,138.19c0.21-0.48,0.47-0.92,0.74-1.34
	C28.86,137.27,28.61,137.72,28.4,138.19z M29.36,187.09c-0.09,0.58-0.12,1.17-0.1,1.77C29.24,188.26,29.28,187.67,29.36,187.09z
	 M29.26,188.88c0.06,1.61,0.51,3.11,1.24,4.4c0.3,0.52,0.64,1,1.02,1.45c0.57,0.67,1.24,1.25,1.97,1.73
	c0.65,0.42,1.36,0.75,2.11,0.99c-0.75-0.24-1.46-0.57-2.11-0.99c-0.73-0.48-1.4-1.06-1.97-1.73c-0.38-0.45-0.72-0.93-1.02-1.45
	C29.77,191.99,29.32,190.49,29.26,188.88L29.26,188.88z M41.22,197.35c-0.83,0.3-1.72,0.48-2.65,0.52h0
	C39.5,197.84,40.39,197.66,41.22,197.35z M43.52,196.1c0.7-0.53,1.32-1.16,1.84-1.87c0.35-0.47,0.65-0.98,0.91-1.52
	c-0.26,0.54-0.56,1.05-0.91,1.52C44.84,194.94,44.22,195.57,43.52,196.1c-0.46,0.35-0.96,0.66-1.49,0.92
	C42.56,196.76,43.06,196.45,43.52,196.1z M47.19,188.22c0.02,0.64-0.02,1.27-0.11,1.89C47.17,189.49,47.21,188.86,47.19,188.22z
	 M229.18,78.83c0-0.04,0-0.07-0.01-0.11c0,0.01,0.01,0.02,0.01,0.03C229.19,78.78,229.18,78.81,229.18,78.83z M229.18,78.97
	c-0.01,0.04-0.02,0.08-0.04,0.12C229.16,79.05,229.17,79.01,229.18,78.97z M229.09,79.2c-0.02,0.04-0.05,0.07-0.09,0.1
	C229.03,79.27,229.06,79.24,229.09,79.2z M228.92,79.38c-0.08,0.06-0.18,0.11-0.29,0.13C228.74,79.49,228.84,79.44,228.92,79.38z
	 M170.26,91c0.01,0.01,0.01,0.02,0.02,0.02c0,0,0,0-0.01,0C170.27,91.02,170.27,91.01,170.26,91z M170.24,90.97
	c-0.01-0.02-0.01-0.05,0.01-0.07C170.23,90.92,170.23,90.95,170.24,90.97z M96.48,315.68l-12.06,0.04L96.48,315.68
	C96.48,315.68,96.48,315.68,96.48,315.68c2.3-0.01,4.39,0.91,5.92,2.4C100.87,316.58,98.79,315.67,96.48,315.68z M104.74,322.23
	c-0.36-1.58-1.16-2.99-2.27-4.1C103.58,319.23,104.38,320.65,104.74,322.23z M82.68,315.9c-1.1,0.23-2.12,0.67-3.02,1.28
	C80.56,316.57,81.58,316.13,82.68,315.9z M79.02,317.67c-0.57,0.47-1.07,1.03-1.5,1.63C77.94,318.69,78.44,318.14,79.02,317.67z
	 M75.96,324.2c-0.01-1.63,0.46-3.16,1.26-4.45C76.42,321.04,75.96,322.56,75.96,324.2C75.96,324.2,75.96,324.2,75.96,324.2z
	 M80.65,332.85c-0.43-0.21-0.83-0.46-1.22-0.74C79.82,332.39,80.23,332.63,80.65,332.85z M121.82,36.01
	c3.02-0.71,5.65,0.46,7.88,3.5c4.57,7.27-2.58,14.75-10.19,11.14c-1.53-1.59-2.49-2.81-2.88-3.65
	C114.41,42.09,116.7,37.22,121.82,36.01z M80.2,68.06c2.79-3.19,5.01-5.14,6.67-5.83c3.59-1.5,6.79-0.21,9.62,3.87
	c1.61,3.31,0.97,6.39-1.9,9.23c-9.03,8.94-17.18,18.25-24.45,27.94c-2.48,3.32-8.4,4.48-11.63,1.37c-4.56-4.38-3.1-9.41,1.19-14.02
	C66.72,83.2,73.56,75.68,80.2,68.06z M9.7,232.12c0.03,0.01,0.07,0.01,0.1,0.01C9.77,232.13,9.74,232.13,9.7,232.12z M9.9,232.14
	c0.03,0,0.06-0.02,0.09-0.02C9.96,232.12,9.93,232.14,9.9,232.14z M10.08,232.08c0.03-0.01,0.05-0.04,0.07-0.05
	C10.13,232.05,10.1,232.07,10.08,232.08z M10.24,231.94c0,0.01-0.01,0.01-0.02,0.02c0.04-0.04,0.07-0.09,0.09-0.15
	C10.3,231.86,10.27,231.9,10.24,231.94z M34.31,282.07c0.01,0,0.01,0.01,0.02,0.01c-0.02-0.01-0.04-0.02-0.06-0.02
	C34.28,282.07,34.3,282.07,34.31,282.07z M91.58,385.13c0.02-0.02,0.04-0.03,0.06-0.04c-0.04,0.04-0.09,0.07-0.12,0.12
	C91.54,385.18,91.56,385.16,91.58,385.13z M117.61,396.92c0.02,0,0.05-0.01,0.07-0.02C117.66,396.91,117.63,396.92,117.61,396.92z
	 M117.78,396.88c0.03-0.02,0.06-0.04,0.09-0.06C117.84,396.84,117.81,396.86,117.78,396.88z M117.92,396.77
	c0.02-0.02,0.03-0.04,0.04-0.06C117.95,396.73,117.94,396.76,117.92,396.77z M118.01,396.62c0.01-0.03,0.01-0.07,0.02-0.1
	C118.03,396.55,118.03,396.58,118.01,396.62C118.02,396.61,118.02,396.62,118.01,396.62z"/>
</svg>
